<svg width="90" height="90" viewBox="0 0 144 51" fill="white"
    xmlns="http://www.w3.org/2000/svg">
    <path
        d="M42.6122 19.0141L35.2057 23.2587C35.1047 23.317 34.9901 23.3477 34.8735 23.3477C34.7569 23.3477 34.6424 23.317 34.5414 23.2587L22.1264 16.0781C22.0255 16.0198 21.9109 15.9891 21.7943 15.9891C21.6777 15.9891 21.5632 16.0198 21.4622 16.0781L9.0339 23.2587C8.93292 23.317 8.81837 23.3477 8.70177 23.3477C8.58517 23.3477 8.47062 23.317 8.36964 23.2587L0.664247 18.8281C0.59809 18.7895 0.543205 18.7342 0.505061 18.6678C0.466918 18.6013 0.446846 18.5261 0.446846 18.4495C0.446846 18.3729 0.466918 18.2976 0.505061 18.2312C0.543205 18.1647 0.59809 18.1094 0.664247 18.0708L18.5992 7.73497L21.1832 6.24703C21.3835 6.12568 21.6132 6.06152 21.8474 6.06152C22.0817 6.06152 22.3114 6.12568 22.5117 6.24703L25.089 7.73497L42.6122 17.8782C42.7098 17.9374 42.7905 18.0208 42.8465 18.1203C42.9025 18.2197 42.9319 18.332 42.9319 18.4461C42.9319 18.5603 42.9025 18.6725 42.8465 18.772C42.7905 18.8715 42.7098 18.9549 42.6122 19.0141V19.0141Z" />
    <path
        d="M43.5953 23.6639V31.8011C43.5927 32.0318 43.5301 32.2578 43.4136 32.457C43.2972 32.6562 43.1308 32.8216 42.931 32.9369L25.0359 43.2728L22.4519 44.7607C22.25 44.8773 22.0209 44.9387 21.7877 44.9387C21.5545 44.9387 21.3254 44.8773 21.1234 44.7607L18.5394 43.2728L0.664258 32.9369C0.464434 32.8216 0.298096 32.6562 0.181621 32.457C0.0651467 32.2578 0.00255202 32.0318 0 31.8011L0 23.6639C0.00196544 23.5496 0.0334137 23.4377 0.091301 23.339C0.149188 23.2404 0.231554 23.1584 0.330425 23.101C0.429297 23.0435 0.541326 23.0126 0.655668 23.0111C0.770011 23.0096 0.882794 23.0377 0.983102 23.0926L21.4688 34.9231C21.5698 34.9814 21.6844 35.0121 21.801 35.0121C21.9176 35.0121 22.0321 34.9814 22.1331 34.9231L42.6122 23.0926C42.7125 23.0377 42.8253 23.0096 42.9396 23.0111C43.0539 23.0126 43.166 23.0435 43.2648 23.101C43.3637 23.1584 43.4461 23.2404 43.504 23.339C43.5619 23.4377 43.5933 23.5496 43.5953 23.6639Z" />
    <path
        d="M52.3347 41V10.4297H70.3344V15.9424H58.8705V22.2277H70.3344V27.7821H58.8705V41H52.3347ZM79.8563 25.7775C80.4549 23.7868 81.311 22.2973 82.4247 21.3089C83.5523 20.3205 84.9444 19.8263 86.6009 19.8263C86.9768 19.8263 87.5963 19.8959 88.4594 20.0352C88.6264 20.063 88.7517 20.0839 88.8352 20.0978L87.9373 26.4875C87.4919 26.3065 87.0394 26.1743 86.5801 26.0907C86.1346 25.9933 85.6613 25.9446 85.1601 25.9446C83.3504 25.9446 82.0488 26.4109 81.2553 27.3436C80.4618 28.2624 80.0651 29.8076 80.0651 31.9793V41H74.1139V20.5154H79.9816L79.8563 25.7775ZM91.2366 12.1003C91.2366 11.1536 91.5777 10.3393 92.2598 9.65714C92.9419 8.97502 93.7563 8.63395 94.7029 8.63395C95.6634 8.63395 96.4848 8.97502 97.1669 9.65714C97.8629 10.3253 98.211 11.1397 98.211 12.1003C98.211 13.0608 97.8629 13.8821 97.1669 14.5642C96.4848 15.2464 95.6634 15.5874 94.7029 15.5874C93.7563 15.5874 92.9419 15.2394 92.2598 14.5434C91.5777 13.8473 91.2366 13.033 91.2366 12.1003ZM91.7586 41V20.5154H97.6889V41H91.7586ZM107.482 41H100.445L107.712 30.6011L100.821 20.5154H108.255L110.28 24.3158C110.531 24.8031 110.754 25.3042 110.949 25.8193C111.157 26.3344 111.345 26.8773 111.512 27.448C111.665 26.919 111.853 26.397 112.076 25.8819C112.299 25.3529 112.57 24.817 112.891 24.2741L115.062 20.5154H122.12L115.104 30.4758L122.496 41H115.104L112.703 36.8029C112.424 36.2739 112.174 35.7518 111.951 35.2368C111.742 34.7078 111.568 34.1788 111.429 33.6498C111.29 34.1927 111.109 34.7217 110.886 35.2368C110.663 35.7379 110.371 36.2739 110.009 36.8446L107.482 41ZM128.781 41H121.744L129.011 30.6011L122.12 20.5154H129.554L131.579 24.3158C131.83 24.8031 132.053 25.3042 132.248 25.8193C132.456 26.3344 132.644 26.8773 132.811 27.448C132.964 26.919 133.152 26.397 133.375 25.8819C133.598 25.3529 133.869 24.817 134.189 24.2741L136.361 20.5154H143.419L136.403 30.4758L143.795 41H136.403L134.002 36.8029C133.723 36.2739 133.473 35.7518 133.25 35.2368C133.041 34.7078 132.867 34.1788 132.728 33.6498C132.589 34.1927 132.408 34.7217 132.185 35.2368C131.962 35.7379 131.67 36.2739 131.308 36.8446L128.781 41Z" />
</svg>