<svg width="100" height="100" viewBox="0 0 18 30" fill="none" xmlns="http://www.w3.org/2000/svg">
<path d="M5.28 11H3.024V2.96H5.28V11ZM8.112 4.988H0.18V2.96H8.112V4.988ZM12.9889 11.12C12.0609 11.12 11.2609 10.952 10.5889 10.616C9.92488 10.272 9.41688 9.792 9.06488 9.176C8.71288 8.552 8.53688 7.82 8.53688 6.98C8.53688 6.14 8.71288 5.412 9.06488 4.796C9.41688 4.172 9.92488 3.692 10.5889 3.356C11.2609 3.012 12.0609 2.84 12.9889 2.84C13.9489 2.84 14.7609 3.012 15.4249 3.356C16.0969 3.692 16.6089 4.172 16.9609 4.796C17.3129 5.412 17.4889 6.14 17.4889 6.98C17.4889 7.82 17.3129 8.552 16.9609 9.176C16.6089 9.792 16.0969 10.272 15.4249 10.616C14.7609 10.952 13.9489 11.12 12.9889 11.12ZM12.9889 8.96C13.5329 8.96 13.9569 8.908 14.2609 8.804C14.5649 8.692 14.7769 8.492 14.8969 8.204C15.0249 7.916 15.0889 7.508 15.0889 6.98C15.0889 6.444 15.0249 6.036 14.8969 5.756C14.7769 5.468 14.5649 5.272 14.2609 5.168C13.9569 5.056 13.5329 5 12.9889 5C12.4449 5 12.0249 5.056 11.7289 5.168C11.4329 5.272 11.2249 5.468 11.1049 5.756C10.9929 6.036 10.9369 6.444 10.9369 6.98C10.9369 7.508 10.9929 7.916 11.1049 8.204C11.2249 8.492 11.4329 8.692 11.7289 8.804C12.0249 8.908 12.4449 8.96 12.9889 8.96Z" fill="#2272FF"/>
<path d="M4.44 27.596H0.12V26H4.44V27.596ZM10.3066 26H4.91859V17.96H10.0306C10.6146 17.96 11.0986 18.036 11.4826 18.188C11.8666 18.332 12.1546 18.548 12.3466 18.836C12.5386 19.124 12.6346 19.48 12.6346 19.904C12.6346 20.416 12.4826 20.84 12.1786 21.176C11.8826 21.512 11.3666 21.696 10.6306 21.728V21.848C11.4386 21.88 12.0346 22.068 12.4186 22.412C12.8106 22.756 13.0066 23.208 13.0066 23.768C13.0066 24.216 12.9146 24.608 12.7306 24.944C12.5466 25.28 12.2546 25.54 11.8546 25.724C11.4626 25.908 10.9466 26 10.3066 26ZM7.16259 22.856V23.972H10.0186C10.2906 23.972 10.4746 23.936 10.5706 23.864C10.6746 23.784 10.7266 23.632 10.7266 23.408C10.7266 23.184 10.6786 23.036 10.5826 22.964C10.4866 22.892 10.2986 22.856 10.0186 22.856H7.16259ZM7.16259 19.988V21.008H9.79059C10.0226 21.008 10.1786 20.972 10.2586 20.9C10.3386 20.82 10.3786 20.688 10.3786 20.504C10.3786 20.32 10.3266 20.188 10.2226 20.108C10.1266 20.028 9.96259 19.988 9.73059 19.988H7.16259ZM15.741 26H13.485V17.96H15.741V26Z" fill="white"/>
</svg>
